PathFileType	4	(X/Y/Z)	C:\Users\Biomechanik\SynologyDrive\AlexP\Athlete_03\Athlete_3_25_03_31\Static_01\marker_experimental.trc
DataRate	CameraRate	NumFrames	NumMarkers	Units	OrigDataRate	OrigDataStartFrame	OrigNumFrames
200	200	4	80	mm	200	186	37
Frame#	Time	BL			BR			GLAB			RFHD			LFHD			C7			T6			SPINMOL			SPINM2			SPINM3			T12			BELTOL			BELT2			BELT3			SACROL			SACR2			SACR3			LASI			RASI			LPSI			RPSI			LTHOL			LTH2			LTH3			LKNEL			LKNEM			LFIB			LSHAOL			LSHA2			LSHA3			LMALL			LMALM			LHEE			LTOE			LM5			RTHOL			RTH2			RTH3			RKNEL			RKNEM			RFIB			RSHAOL			RSHA2			RSHA3			RMALL			RMALM			RHEE			RTOE			RM5			STRN			XIPH			LACR			LUAOL			LUA2			LUA3			LCUBL			LCUBM			LLAOL			LLA2			LLA3			LWRR			LWRU			RACR			RUAOL			RUA2			RUA3			RCUBL			RCUBM			RLAOL			RLA2			RLA3			RWRR			RWRU			*73			LKJCWK			RKJCWK			RAJCWK			LAJCWK			RHJCWK			LHJCWK
		X1	Y1	Z1	X2	Y2	Z2	X3	Y3	Z3	X4	Y4	Z4	X5	Y5	Z5	X6	Y6	Z6	X7	Y7	Z7	X8	Y8	Z8	X9	Y9	Z9	X10	Y10	Z10	X11	Y11	Z11	X12	Y12	Z12	X13	Y13	Z13	X14	Y14	Z14	X15	Y15	Z15	X16	Y16	Z16	X17	Y17	Z17	X18	Y18	Z18	X19	Y19	Z19	X20	Y20	Z20	X21	Y21	Z21	X22	Y22	Z22	X23	Y23	Z23	X24	Y24	Z24	X25	Y25	Z25	X26	Y26	Z26	X27	Y27	Z27	X28	Y28	Z28	X29	Y29	Z29	X30	Y30	Z30	X31	Y31	Z31	X32	Y32	Z32	X33	Y33	Z33	X34	Y34	Z34	X35	Y35	Z35	X36	Y36	Z36	X37	Y37	Z37	X38	Y38	Z38	X39	Y39	Z39	X40	Y40	Z40	X41	Y41	Z41	X42	Y42	Z42	X43	Y43	Z43	X44	Y44	Z44	X45	Y45	Z45	X46	Y46	Z46	X47	Y47	Z47	X48	Y48	Z48	X49	Y49	Z49	X50	Y50	Z50	X51	Y51	Z51	X52	Y52	Z52	X53	Y53	Z53	X54	Y54	Z54	X55	Y55	Z55	X56	Y56	Z56	X57	Y57	Z57	X58	Y58	Z58	X59	Y59	Z59	X60	Y60	Z60	X61	Y61	Z61	X62	Y62	Z62	X63	Y63	Z63	X64	Y64	Z64	X65	Y65	Z65	X66	Y66	Z66	X67	Y67	Z67	X68	Y68	Z68	X69	Y69	Z69	X70	Y70	Z70	X71	Y71	Z71	X72	Y72	Z72	X73	Y73	Z73	X74	Y74	Z74	X75 	Y75 	Z75 	X76 	Y76 	Z76 	X77 	Y77 	Z77 	X78 	Y78 	Z78 	X79 	Y79 	Z79 	X80 	Y80 	Z80

187	0.93	960.7593	36.2322	-1933.5183	1063.1637	32.9405	86.6476	369.7136	1600.5334	-1184.974	319.1832	1627.6191	-1122.7181	330.2115	1628.7294	-1258.5287	142.6616	1439.0406	-1205.3475	nan	nan	nan	100.386	1229.9365	-1237.7524	94.6078	1220.6641	-1188.3568	107.7311	1165.4434	-1223.0437	124.0465	1102.3259	-1219.9889	95.8898	1081.4114	-1234.4585	95.5995	1078.0902	-1184.168	88.8285	1018.6573	-1214.2469	104.1985	959.5529	-1238.8405	104.9164	957.4355	-1187.4663	85.9094	900.2233	-1214.8455	334.7423	934.7285	-1330.9142	326.6441	925.8282	-1083.6229	116.9589	976.9637	-1257.6045	117.5168	967.9052	-1173.1515	192.5119	683.7006	-1400.3411	142.6898	630.7754	-1367.5909	188.8972	623.9308	-1386.4005	236.1489	487.6504	-1382.8922	254.1293	462.0781	-1263.626	193.2927	425.9167	-1387.7278	159.3988	328.9098	-1403.4534	110.1457	267.3659	-1390.5675	159.1167	267.0656	-1401.9033	142.7547	81.4201	-1381.4969	183.6266	89.7399	-1295.7122	95.0072	67.5546	-1318.3269	309.8969	47.7381	-1348.6632	253.0571	31.1436	-1443.6305	161.0353	696.555	-1024.9408	211.3443	637.7922	-1005.3647	167.9932	635.3347	-1030.1599	201.2163	496.2921	-1026.5532	239.2096	464.0317	-1148.0366	154.1915	432.7139	-1029.6459	119.6818	346.97	-1019.4126	149.1774	275.6992	-1004.0237	107.8467	286.563	-1029.5023	124.9767	85.1447	-1041.9091	189.0988	95.5818	-1114.6537	90.5791	63.7981	-1115.1379	292.7109	47.6024	-1043.7766	216.4524	39.4869	-964.2077	324.8536	1365.8958	-1200.9015	355.7129	1220.2825	-1202.9739	203.1422	1435.7743	-1351.5013	169.9875	1410.7997	-1490.4751	159.0283	1385.2963	-1550.7743	202.3286	1413.6326	-1547.8832	184.0602	1401.6932	-1655.0902	257.1629	1311.3998	-1653.2654	182.3566	1376.1711	-1745.7048	175.4577	1316.8488	-1798.5828	187.4781	1365.3265	-1806.6716	200.8069	1356.2169	-1910.9585	279.8973	1353.2666	-1903.3088	203.1764	1429.5522	-1060.7869	159.9432	1411.595	-938.6714	177.375	1408.8337	-875.0363	130.794	1388.9333	-885.0759	153.0812	1391.1075	-770.382	209.7086	1295.9248	-770.671	141.4879	1371.0656	-671.5854	157.2943	1413.0726	-605.555	140.648	1365.4902	-609.2789	152.3138	1376.9529	-516.8912	230.3891	1352.5624	-504.4553	102.3997	1266.7471	-1215.6228	245.1391	474.8642	-1323.2591	220.2129	480.1619	-1087.2949	155.3313	79.8341	-1078.0379	160.9692	75.0272	-1339.0205	267.5031	851.0031	-1123.1323	273.3223	857.3986	-1300.829
188	0.935	960.7607	36.2126	-1933.5275	1063.1467	32.9288	86.6495	369.7882	1600.5129	-1184.8888	319.2257	1627.6219	-1122.6484	330.2542	1628.735	-1258.5123	142.7085	1439.0415	-1205.3267	nan	nan	nan	100.4514	1229.9316	-1237.7103	94.7207	1220.6831	-1188.3259	107.7832	1165.438	-1222.9994	124.1068	1102.3438	-1219.9559	95.9518	1081.4266	-1234.4211	95.6623	1078.118	-1184.1157	88.8377	1018.673	-1214.2255	104.2234	959.5616	-1238.7921	104.9292	957.4413	-1187.4221	85.93	900.2424	-1214.7993	334.761	934.7133	-1330.876	326.6572	925.8311	-1083.611	117.139	976.9341	-1257.5646	117.547	967.9215	-1173.1082	192.5378	683.7363	-1400.3282	142.7223	630.7758	-1367.5477	188.9097	623.9321	-1386.3779	236.1411	487.6585	-1382.8669	254.1168	462.0675	-1263.5917	193.2772	425.9138	-1387.6809	159.393	328.8974	-1403.4385	110.1152	267.3702	-1390.5642	159.1027	267.062	-1401.8864	142.7653	81.4161	-1381.4971	183.6091	89.7274	-1295.7086	95.0118	67.5496	-1318.3231	309.8997	47.6976	-1348.6801	253.0417	31.1451	-1443.632	161.052	696.5588	-1024.9299	211.3478	637.7877	-1005.3378	167.9841	635.3347	-1030.1401	201.2166	496.2896	-1026.5273	239.2049	464.0474	-1148.0176	154.1951	432.7192	-1029.6206	119.6678	346.9625	-1019.3954	149.1868	275.7243	-1003.9626	107.8436	286.558	-1029.4852	124.984	85.1462	-1041.8877	189.0869	95.6411	-1114.6948	90.5892	63.79	-1115.1285	292.7182	47.6022	-1043.769	216.4596	39.4537	-964.2278	324.8945	1365.9152	-1200.8765	355.7617	1220.2764	-1202.9355	203.202	1435.7611	-1351.4766	170.0212	1410.7686	-1490.4604	159.1079	1385.516	-1550.8473	202.376	1413.6104	-1547.8365	184.1101	1401.6486	-1655.0599	257.2228	1311.3127	-1653.2235	182.4285	1376.1245	-1745.6682	175.4972	1316.7892	-1798.5693	187.5293	1365.2762	-1806.6494	200.9142	1356.1743	-1910.9327	279.9602	1353.2313	-1903.2881	203.1907	1429.5579	-1060.7765	159.9727	1411.6169	-938.6447	177.4428	1408.8334	-875.0361	130.8719	1388.9403	-885.0751	153.1449	1391.1265	-770.3521	209.8036	1295.9447	-770.6136	141.5457	1371.0811	-671.545	157.3415	1413.084	-605.535	140.6977	1365.5095	-609.2516	152.4086	1377.0227	-516.9599	230.4338	1352.6014	-504.4399	102.4716	1266.7402	-1215.5907	245.1289	474.863	-1323.2293	220.2108	480.1685	-1087.2725	155.3289	79.8645	-1078.0486	160.9659	75.019	-1339.0196	267.5104	851.0079	-1123.1034	273.3342	857.391	-1300.800
189	0.94	960.7569	36.2013	-1933.522	1063.1584	32.9266	86.6503	369.8146	1600.5265	-1184.8931	319.2441	1627.6213	-1122.6221	330.3069	1628.7354	-1258.4984	142.7426	1439.0426	-1205.3167	nan	nan	nan	100.5023	1229.9287	-1237.6893	94.7824	1220.684	-1188.3033	107.8325	1165.4419	-1222.9817	124.1494	1102.3674	-1219.9172	95.9135	1081.2952	-1234.3312	95.705	1078.1364	-1184.0829	88.938	1018.6703	-1214.1412	104.2292	959.5739	-1238.7675	104.962	957.4773	-1187.3627	85.9441	900.2581	-1214.775	334.7952	934.6861	-1330.8378	326.6848	925.8095	-1083.5597	117.1539	976.9581	-1257.5277	117.5775	967.9364	-1173.0667	192.5438	683.7521	-1400.29	142.7166	630.7792	-1367.5208	188.908	623.9266	-1386.3558	236.1684	487.5854	-1382.5911	254.1217	462.0769	-1263.5742	193.2703	425.9162	-1387.6608	159.3748	328.9093	-1403.4153	110.1119	267.3693	-1390.5396	159.0897	267.0662	-1401.855	142.7662	81.4215	-1381.4911	183.6085	89.7201	-1295.7103	95.0161	67.542	-1318.3192	309.9055	47.691	-1348.6903	253.0016	31.2101	-1443.6473	161.07	696.5545	-1024.9027	211.3594	637.7927	-1005.32	167.9969	635.3531	-1030.1061	201.2068	496.2736	-1026.5106	239.1927	464.0431	-1148.0015	154.1926	432.7144	-1029.6045	119.6732	346.9634	-1019.3699	149.1962	275.7136	-1003.9559	107.8422	286.5538	-1029.4818	124.9813	85.1422	-1041.8943	189.0918	95.6378	-1114.7012	90.6041	63.7675	-1115.1162	292.717	47.6023	-1043.7675	216.4518	39.478	-964.2057	324.9364	1365.9165	-1200.8511	355.8098	1220.2803	-1202.9001	203.2589	1435.7544	-1351.4471	170.0685	1410.7603	-1490.4447	159.1535	1385.4783	-1550.806	202.3962	1413.5668	-1547.822	184.1709	1401.6071	-1655.0238	257.2649	1311.3115	-1653.2067	182.3657	1376.0856	-1745.6991	175.5616	1316.7251	-1798.5614	187.6105	1365.2386	-1806.6152	200.9805	1356.1262	-1910.9009	280.0359	1353.1917	-1903.2651	203.2271	1429.5684	-1060.7412	160.0386	1411.6239	-938.6259	177.5008	1408.8573	-874.9825	130.893	1388.8596	-884.926	153.2029	1391.1451	-770.3429	209.7852	1295.9375	-770.6514	141.6061	1371.1089	-671.502	157.4065	1413.1202	-605.4857	140.7687	1365.5377	-609.2063	152.4814	1377.0459	-516.9326	230.506	1352.6118	-504.4163	102.4818	1266.7577	-1215.5675	245.1451	474.8312	-1323.0826	220.1998	480.1583	-1087.256	155.3303	79.8608	-1078.0557	160.9655	75.0183	-1339.0214	267.5247	850.997	-1123.0583	273.353	857.3759	-1300.755
190	0.945	960.7582	36.1908	-1933.5233	1063.1528	32.9278	86.6609	369.6673	1600.5979	-1185.1055	319.2785	1627.623	-1122.6692	330.3568	1628.7421	-1258.4819	142.788	1439.0398	-1205.2928	nan	nan	nan	100.5378	1229.928	-1237.6639	94.8211	1220.7039	-1188.267	107.8562	1165.4448	-1222.9658	124.1675	1102.3955	-1219.8643	96.0642	1081.4622	-1234.3507	95.7508	1078.1625	-1184.046	88.9514	1018.7058	-1214.1416	104.2605	959.5852	-1238.7235	104.9966	957.478	-1187.3303	85.9577	900.2777	-1214.7217	334.8291	934.6708	-1330.7766	326.7075	925.8116	-1083.5371	116.8231	976.8646	-1257.5732	117.5979	967.957	-1173.0245	192.4994	683.7895	-1400.2557	142.7529	630.7756	-1367.4587	188.9042	623.9221	-1386.3217	236.1737	487.5765	-1382.5704	254.1122	462.0864	-1263.5397	193.277	425.9065	-1387.6521	159.3623	328.9119	-1403.3928	110.0998	267.3815	-1390.5238	159.0751	267.0763	-1401.8389	142.7578	81.4286	-1381.4916	183.6092	89.7294	-1295.7112	95.0042	67.5419	-1318.3146	309.9016	47.7044	-1348.6876	253.0498	31.1314	-1443.6227	161.0795	696.5544	-1024.8778	211.363	637.7834	-1005.3077	168.0032	635.3464	-1030.0829	201.2044	496.271	-1026.4873	239.1674	464.0703	-1147.9749	154.1923	432.7219	-1029.5768	119.6648	346.9523	-1019.3429	149.1788	275.704	-1003.9203	107.846	286.5498	-1029.4532	124.9734	85.1406	-1041.8849	189.0792	95.5846	-1114.6581	90.5623	63.8107	-1115.0938	292.7073	47.6074	-1043.7659	216.4483	39.4407	-964.2295	324.9733	1365.934	-1200.8148	355.8333	1220.3522	-1202.8558	203.3318	1435.7433	-1351.4022	170.0792	1410.7365	-1490.4368	159.07	1385.2662	-1550.7756	202.4477	1413.5393	-1547.7771	184.2205	1401.5737	-1655.0002	257.3033	1311.2838	-1653.1993	182.5298	1376.0675	-1745.6317	175.6766	1316.7094	-1798.5321	187.6343	1365.1901	-1806.6044	201.0869	1356.0918	-1910.8549	280.1039	1353.1581	-1903.2406	203.2622	1429.5693	-1060.7168	160.0801	1411.6337	-938.5959	177.4875	1409.0422	-874.9304	130.9756	1388.9749	-884.9932	153.2676	1391.1705	-770.325	210.0409	1295.9939	-770.4411	141.6657	1371.1415	-671.4853	157.4828	1413.163	-605.4761	140.8348	1365.5828	-609.1647	152.3423	1377.2303	-516.7379	230.556	1352.6492	-504.3979	102.5325	1266.7474	-1215.5454	245.143	474.8315	-1323.0551	220.1859	480.1706	-1087.2311	155.3203	79.8334	-1078.0295	160.9616	75.0265	-1339.0228	267.5717	850.9778	-1123.0144	273.4088	857.3451	-1300.711
